<?xml version="1.0" standalone="no"?>
<!DOCTYPE svg PUBLIC "-//W3C//DTD SVG 20010904//EN"
 "http://www.w3.org/TR/2001/REC-SVG-20010904/DTD/svg10.dtd">
<svg version="1.0" xmlns="http://www.w3.org/2000/svg"
 width="504.000000pt" height="504.000000pt" viewBox="0 0 504.000000 504.000000"
 preserveAspectRatio="xMidYMid meet">

<g transform="translate(0.000000,504.000000) scale(0.100000,-0.100000)"
fill="#000000" stroke="none">
<path d="M2320 5029 c-224 -18 -509 -85 -718 -168 -864 -345 -1461 -1113
-1584 -2041 -16 -125 -16 -489 1 -610 64 -467 244 -896 531 -1262 84 -107 291
-314 398 -398 306 -239 689 -420 1047 -493 213 -44 291 -52 525 -52 234 0 312
8 525 52 358 73 741 254 1047 493 107 84 314 291 398 398 285 365 461 780 531
1257 18 119 18 500 1 625 -66 470 -246 898 -532 1262 -88 111 -274 298 -390
390 -505 402 -1143 598 -1780 547z m365 -689 c506 -37 947 -253 1277 -623 82
-93 169 -214 224 -313 l28 -51 -24 -31 c-14 -17 -28 -31 -31 -31 -3 -1 -19 23
-34 52 -93 172 -262 376 -423 510 -529 441 -1280 532 -1908 232 -296 -142
-555 -373 -729 -650 -48 -78 -236 -317 -242 -311 -2 2 9 31 23 66 142 349 388
646 707 854 255 167 565 272 872 295 61 4 112 9 115 10 3 0 68 -4 145 -9z m-4
-241 c26 -13 25 -64 -1 -82 l-21 -14 21 -6 c15 -4 20 -13 20 -40 0 -49 -28
-67 -103 -67 l-58 0 2 108 c1 59 4 111 7 116 6 10 107 0 133 -15z m-313 -48
c2 -19 -2 -37 -9 -41 -8 -6 -5 -11 10 -19 12 -7 21 -21 21 -36 0 -13 4 -36 10
-50 10 -26 9 -26 -28 -23 -35 3 -38 5 -46 46 -12 58 -29 53 -21 -7 6 -45 4
-49 -17 -55 -13 -3 -28 -6 -34 -6 -9 0 -29 94 -41 187 -4 38 6 42 92 40 l60
-2 3 -34z m638 -6 c-1 -5 -16 -10 -32 -9 -16 0 -32 -4 -36 -10 -12 -18 -9 -46
5 -46 20 0 40 -17 33 -28 -5 -8 -15 -8 -32 -2 -26 10 -27 10 -38 -42 -5 -23
-2 -27 24 -33 17 -4 30 -13 30 -22 0 -11 -7 -14 -22 -10 -13 3 -40 9 -61 13
-21 3 -41 12 -43 19 -4 10 24 148 41 201 2 7 24 5 69 -5 36 -9 64 -20 62 -26z
m-958 -121 c34 -47 62 -89 62 -93 0 -4 -12 -13 -27 -20 -25 -11 -29 -10 -46
13 -24 34 -44 25 -39 -18 3 -30 0 -35 -26 -44 l-30 -10 -17 91 c-9 51 -18 102
-21 113 -3 17 4 25 34 37 20 8 39 15 42 16 3 0 33 -38 68 -85z m1244 18 c6 -7
-36 -209 -45 -219 -3 -2 -16 2 -31 8 -23 11 -25 17 -20 44 8 42 -18 54 -40 20
-14 -21 -19 -23 -46 -13 -17 5 -30 14 -28 18 2 4 32 46 68 92 l65 85 35 -14
c19 -8 38 -18 42 -21z m-1557 -116 c8 -13 13 -31 9 -40 -4 -11 -1 -16 14 -16
22 0 52 -39 52 -69 0 -17 -22 -38 -97 -94 -8 -6 -30 20 -72 82 -34 50 -61 92
-61 95 0 2 21 18 47 35 56 37 87 39 108 7z m1818 -47 c31 -27 47 -48 47 -64 0
-28 -27 -58 -46 -51 -10 4 -14 -3 -14 -20 0 -14 -12 -40 -27 -59 -25 -31 -28
-32 -50 -18 -29 19 -29 28 3 70 38 50 23 64 -16 15 -18 -23 -36 -42 -39 -42
-3 1 -16 9 -29 20 l-23 19 68 85 c37 47 70 86 73 86 3 0 26 -18 53 -41z m-770
16 c183 -30 362 -100 516 -202 100 -67 261 -219 330 -313 45 -60 145 -230 139
-235 -10 -8 -70 -36 -72 -33 -2 2 -19 32 -39 68 -122 221 -298 394 -517 509
-470 246 -1045 164 -1429 -203 -40 -39 -94 -98 -120 -132 l-46 -60 -38 16 -37
17 31 47 c50 75 172 198 266 269 173 130 368 214 583 252 102 18 326 18 433 0z
m-123 -165 c60 -31 93 -81 98 -151 6 -77 -2 -102 -44 -149 -49 -54 -119 -77
-188 -61 -65 15 -114 53 -138 107 -17 41 -18 47 -4 94 15 49 45 110 56 110 3
1 19 12 35 26 21 17 24 23 10 18 -11 -4 -35 -21 -54 -38 -31 -27 -33 -28 -19
-6 40 64 169 91 248 50z m1112 -54 c16 -23 16 -24 -30 -67 -114 -108 -109
-105 -132 -84 -11 10 -20 22 -20 27 0 13 142 147 155 147 6 0 18 -10 27 -23z
m-2313 -90 c21 -21 26 -35 25 -71 -4 -180 -315 -455 -632 -560 -47 -15 -73
-37 -218 -182 -97 -97 -155 -163 -142 -159 49 15 292 19 411 7 136 -14 303
-49 388 -80 l56 -21 74 49 c41 26 107 66 148 87 72 39 75 42 132 139 32 55 58
103 59 108 0 4 -39 -27 -87 -68 -103 -89 -241 -185 -265 -185 -22 0 -58 52
-58 85 0 14 5 35 11 47 6 11 -28 -12 -76 -51 -48 -38 -100 -73 -115 -76 -34
-8 -69 12 -76 42 -15 57 206 393 259 393 8 0 29 -14 46 -31 32 -32 41 -55 18
-46 -17 6 -44 -16 -89 -73 -46 -59 -143 -219 -136 -225 11 -11 129 78 236 177
115 108 182 154 279 194 76 31 160 32 197 3 27 -21 34 -61 16 -89 -7 -11 -8
-6 -4 16 7 38 -15 64 -54 64 -70 0 -242 -112 -317 -207 -55 -70 -100 -142 -92
-150 12 -12 159 90 295 204 34 29 69 53 77 53 16 0 55 -34 55 -49 0 -5 -20
-44 -45 -87 -24 -43 -43 -80 -41 -82 2 -1 21 3 43 10 33 10 45 21 68 65 31 61
153 181 217 215 120 63 180 72 221 34 29 -27 28 -40 -5 -88 -45 -65 -252 -188
-316 -188 -20 0 -46 -43 -54 -85 -6 -35 50 -31 129 9 101 52 252 166 302 227
69 86 112 129 128 129 8 0 29 -14 46 -31 30 -31 31 -32 10 -40 -11 -4 -40 -30
-64 -58 -52 -60 -160 -235 -148 -239 35 -13 246 171 359 313 31 39 63 71 73
73 9 2 31 -11 49 -28 l31 -31 -30 -19 c-29 -17 -153 -169 -153 -187 0 -4 33
24 73 63 72 71 160 141 230 183 43 26 80 23 97 -10 10 -18 5 -27 -37 -72 -49
-53 -118 -146 -111 -152 1 -1 26 6 55 16 53 20 107 67 194 167 25 28 50 52 56
52 13 0 73 -48 73 -58 0 -4 -13 -14 -29 -23 -42 -24 -214 -279 -199 -294 7 -8
111 66 183 130 82 73 114 106 190 198 62 74 82 81 120 42 31 -30 31 -38 -1
-55 -24 -13 -197 -230 -189 -238 2 -2 21 14 42 35 86 86 274 233 341 267 32
16 35 16 53 0 37 -34 33 -48 -50 -160 -85 -114 -135 -198 -129 -215 4 -12 88
43 164 107 29 24 67 70 84 101 111 196 347 511 415 553 41 25 61 25 104 -1
l34 -20 -41 -21 c-73 -35 -305 -334 -422 -543 l-34 -60 60 55 c72 66 191 156
257 195 47 27 48 27 68 9 44 -40 43 -50 -14 -122 -86 -107 -174 -249 -162
-260 6 -6 76 40 133 86 24 20 59 59 79 89 48 73 113 127 212 175 68 33 98 42
156 46 83 5 112 -12 35 -21 -27 -3 -67 -15 -89 -26 -93 -48 -233 -208 -273
-313 -17 -45 -17 -53 -5 -66 23 -23 81 11 167 97 100 101 144 164 135 198 -8
34 18 73 49 73 15 0 32 -11 44 -27 17 -23 30 -28 79 -33 53 -5 56 -6 36 -18
-12 -7 -42 -13 -66 -14 -43 -2 -45 -4 -68 -53 -28 -60 -125 -157 -200 -202
-30 -18 -80 -39 -113 -47 -50 -13 -63 -14 -91 -2 -41 17 -55 42 -55 96 l0 42
-46 -41 c-60 -52 -133 -101 -153 -101 -26 0 -61 42 -61 72 0 48 77 185 143
255 17 18 29 35 26 37 -2 3 -40 -19 -84 -49 -147 -98 -287 -245 -287 -300 -1
-15 -5 -22 -12 -18 -48 27 -58 65 -32 128 15 34 14 34 -65 -30 -78 -63 -127
-95 -149 -95 -18 0 -60 51 -60 72 0 30 64 145 125 226 31 39 53 72 50 72 -10
0 -59 -34 -158 -108 -115 -88 -234 -211 -245 -255 l-8 -32 -27 27 c-35 36 -34
63 7 142 19 36 33 66 32 66 -1 0 -33 -30 -72 -66 -78 -74 -178 -144 -206 -144
-10 0 -27 9 -39 21 -27 27 -21 61 29 148 50 88 50 88 10 58 -19 -15 -56 -36
-82 -48 l-48 -21 -29 28 c-16 15 -29 33 -29 40 0 7 13 37 29 68 l30 56 -27
-17 c-67 -42 -156 -120 -212 -185 -51 -59 -70 -88 -106 -166 -5 -10 -38 16
-50 41 -16 29 -15 33 24 108 l40 78 -81 -75 c-147 -136 -199 -158 -240 -102
l-21 28 40 79 39 79 -55 -45 c-129 -104 -232 -161 -308 -170 -41 -5 -52 -2
-77 19 -22 19 -28 33 -27 61 l1 36 -32 -11 c-53 -18 -65 -31 -136 -145 -176
-284 -344 -451 -483 -482 -196 -44 -161 138 65 336 l48 41 -53 16 c-179 51
-494 66 -692 32 -121 -21 -290 -75 -362 -116 -51 -30 -104 -81 -104 -101 0
-19 -58 31 -68 59 -14 40 1 67 53 97 52 31 189 85 214 85 21 0 135 106 226
208 52 59 95 109 95 112 0 3 -53 4 -117 2 -103 -3 -126 0 -202 23 -72 23 -94
35 -133 75 -50 49 -61 87 -38 131 12 21 60 49 85 49 12 0 11 -4 -6 -21 -57
-57 71 -171 226 -200 33 -6 100 -9 149 -6 84 4 91 6 110 33 12 16 77 101 146
188 257 329 405 452 529 442 30 -3 51 -12 70 -30z m2489 -142 l24 -37 -78 -78
c-43 -44 -81 -79 -85 -79 -3 0 -12 11 -19 25 -12 22 -11 28 8 48 28 30 13 51
-25 34 -22 -10 -27 -8 -44 13 -10 14 -19 27 -19 30 0 4 193 77 210 79 3 0 16
-16 28 -35z m-1365 -91 c23 2 49 8 58 11 12 5 18 0 21 -18 5 -23 2 -26 -23
-26 -37 0 -85 -42 -115 -102 l-25 -49 -52 3 c-51 3 -52 4 -50 33 2 21 16 43
48 73 25 24 45 46 45 49 0 8 -93 -69 -129 -106 -18 -20 -27 -27 -20 -16 25 39
54 68 91 91 21 13 40 35 44 48 5 22 8 23 36 14 16 -6 48 -8 71 -5z m-1066
-115 c27 -25 29 -38 8 -38 -9 0 -38 -20 -64 -45 -42 -39 -50 -43 -61 -30 -16
19 -7 68 21 106 25 35 63 38 96 7z m1170 0 c26 -24 29 -38 9 -38 -8 0 -36 -20
-63 -45 -38 -33 -53 -41 -61 -33 -18 18 -14 47 13 95 30 50 64 57 102 21z
m103 -29 c11 -21 16 -39 10 -39 -5 0 -17 17 -27 38 -9 20 -19 41 -21 46 -3 5
1 6 7 2 6 -4 20 -25 31 -47z m637 29 c27 -25 29 -38 8 -38 -9 0 -38 -20 -64
-45 -45 -42 -50 -45 -65 -29 -20 19 -15 43 20 97 29 44 65 49 101 15z m899
-41 c10 -31 9 -32 -25 -48 -58 -26 -69 -1 -25 57 29 38 34 37 50 -9z m-1826
-44 c0 -11 -80 -76 -86 -70 -2 2 -7 21 -9 41 l-5 36 50 0 c28 0 50 -3 50 -7z
m170 -93 c0 -5 -4 -10 -9 -10 -6 0 -13 5 -16 10 -3 6 1 10 9 10 9 0 16 -4 16
-10z m-1864 -280 c-7 -65 -15 -95 -23 -94 -7 1 -26 2 -42 3 -27 1 -28 3 -24
43 4 32 17 55 51 95 25 29 46 52 47 50 1 -1 -3 -45 -9 -97z m2502 -258 l487 3
3 48 3 47 27 -14 c15 -8 35 -17 44 -20 14 -4 16 -12 12 -36 l-6 -30 191 0 191
0 0 -165 0 -165 -221 0 -220 0 -22 -52 c-221 -544 -759 -876 -1339 -827 -241
21 -469 102 -653 234 -181 129 -358 342 -435 523 l-23 54 29 23 c16 14 32 24
35 25 3 0 18 -29 33 -64 67 -158 228 -356 386 -475 304 -229 741 -303 1109
-186 324 103 600 341 745 645 20 41 36 80 36 87 0 10 -91 13 -450 13 l-450 0
-1 -132 c0 -73 -1 -158 -2 -188 l-2 -55 -95 -1 c-52 -1 -85 0 -72 3 30 6 117
87 135 126 17 37 28 237 12 237 -5 0 -8 -20 -6 -44 2 -39 -2 -48 -33 -79 -19
-19 -86 -69 -148 -111 -62 -41 -124 -84 -138 -95 -15 -12 -40 -21 -62 -21 -21
0 -38 -5 -38 -11 0 -6 -10 -9 -22 -7 -22 3 -23 6 -24 133 0 72 1 102 3 68 2
-35 5 -63 6 -63 1 0 32 28 68 63 36 34 103 87 149 117 l84 55 -109 3 -109 3
-37 -41 c-21 -23 -40 -49 -42 -58 -3 -10 -5 -5 -6 11 0 15 4 27 9 27 6 0 10
11 10 24 0 16 -7 26 -22 30 -13 3 -164 6 -335 6 l-313 0 0 165 0 165 323 1
c177 1 328 1 335 0 8 -1 12 12 12 39 0 22 4 40 9 40 5 0 32 16 61 35 29 19 53
35 55 35 2 0 6 -7 9 -16 4 -10 -12 -32 -49 -66 -30 -27 -55 -53 -55 -57 0 -4
42 -7 93 -8 91 -1 93 0 148 37 30 21 75 41 99 45 41 7 43 8 25 22 -19 13 -19
15 13 44 l32 30 0 -91 c0 -66 3 -89 11 -84 8 5 10 34 6 93 -3 47 -2 118 1 156
6 56 8 37 10 -93 l2 -162 488 2z m-1991 136 c16 -21 22 -68 8 -68 -23 0 -75
22 -75 32 0 10 40 47 51 48 4 0 11 -6 16 -12z m3092 -68 c11 0 13 -20 7 -112
-36 -561 -352 -1093 -835 -1406 -779 -504 -1832 -353 -2425 347 -251 296 -418
695 -438 1046 l-2 50 42 3 c40 3 42 2 43 -25 1 -46 9 -115 20 -168 5 -27 12
-66 15 -85 18 -110 99 -329 171 -460 280 -507 788 -849 1354 -911 149 -17 428
-6 554 20 372 79 669 243 931 513 170 176 288 358 373 576 39 101 86 274 97
355 3 23 9 74 14 112 5 39 10 93 10 122 l0 52 28 -15 c15 -7 33 -14 41 -14z
m-2082 -37 c-3 -10 -5 -4 -5 12 0 17 2 24 5 18 2 -7 2 -21 0 -30z m-484 -533
c11 -8 35 -31 54 -50 33 -32 35 -33 28 -10 -8 25 -7 25 13 7 11 -10 23 -33 26
-50 3 -18 15 -47 27 -66 18 -29 24 -33 52 -27 l32 5 -28 -15 c-21 -11 -27 -21
-24 -35 3 -10 1 -19 -4 -19 -4 0 -13 18 -19 41 -6 22 -18 43 -26 46 -7 3 -14
11 -14 19 0 7 -10 24 -22 38 -20 23 -28 25 -63 19 l-40 -7 30 -7 c19 -4 -3 -7
-55 -7 -141 0 -160 11 -45 26 55 8 103 17 107 20 4 4 -22 32 -58 62 -36 30
-75 63 -87 73 -26 22 88 -39 116 -63z m1577 76 c0 -3 -39 -36 -86 -75 -52 -42
-81 -73 -73 -75 24 -8 144 -26 180 -27 l34 -1 -30 -8 c-39 -10 -209 -11 -175
-1 24 7 23 8 -10 13 -28 5 -40 1 -62 -20 -16 -14 -28 -30 -28 -35 0 -5 -9 -20
-20 -34 -11 -14 -20 -34 -20 -44 0 -10 -10 -24 -22 -30 l-23 -12 20 22 c19 22
19 23 0 37 -18 14 -18 14 1 14 13 0 28 14 42 39 21 37 30 93 15 89 -5 -1 -27
8 -51 20 -39 21 -44 21 -65 7 -12 -8 -26 -15 -31 -15 -6 0 0 7 12 16 31 22 27
42 -10 53 -31 9 -32 9 -6 10 14 1 39 -10 55 -23 15 -13 46 -33 69 -44 37 -19
43 -19 62 -6 20 14 21 13 15 -3 -6 -16 -5 -16 10 -4 9 7 14 17 11 22 -3 5 -1
8 5 7 5 -2 22 7 38 19 25 20 134 92 141 93 1 0 2 -2 2 -4z m-1297 -63 c-34 -7
-48 -29 -32 -50 13 -15 12 -15 -9 -4 -20 11 -29 9 -68 -14 -24 -14 -44 -22
-44 -18 0 4 22 20 49 35 26 15 54 34 61 43 7 8 24 14 39 14 22 -2 23 -2 4 -6z
m844 -11 c-22 -24 -21 -38 1 -51 19 -12 12 -14 -12 -5 -9 3 -16 13 -16 22 0
15 27 52 38 52 3 0 -2 -8 -11 -18z m-779 -33 c-1 -12 -10 -25 -18 -27 -13 -4
-13 -3 -2 11 8 10 11 25 7 39 -6 18 -4 20 5 12 6 -7 10 -22 8 -35z m1822 -62
c-11 -26 -26 -50 -33 -54 -7 -4 -12 -12 -12 -18 0 -5 -9 -30 -19 -55 -15 -36
-28 -49 -59 -63 -22 -9 -43 -14 -48 -11 -5 3 3 28 17 56 14 27 28 48 30 45 3
-3 -4 -23 -15 -46 -12 -22 -21 -44 -21 -48 1 -4 14 18 31 50 16 32 34 55 40
52 5 -4 17 -1 25 6 14 12 14 14 -1 25 -15 11 -15 14 0 44 9 18 14 34 11 37 -6
6 -36 -52 -36 -71 0 -16 -38 -42 -48 -32 -3 3 -1 6 5 6 6 0 20 18 32 40 25 48
25 51 6 44 -8 -4 -15 -2 -15 3 0 5 6 10 13 11 42 3 57 7 57 15 0 4 3 6 8 4 4
-3 16 -1 27 3 11 4 21 6 23 5 1 -1 -7 -23 -18 -48z m-150 -7 c-8 -5 -19 -10
-25 -10 -5 0 -3 5 5 10 8 5 20 10 25 10 6 0 3 -5 -5 -10z m-1945 -10 c3 -5 1
-10 -4 -10 -6 0 -11 5 -11 10 0 6 2 10 4 10 3 0 8 -4 11 -10z m1325 0 c0 -5
-4 -10 -10 -10 -5 0 -10 5 -10 10 0 6 5 10 10 10 6 0 10 -4 10 -10z m-2000
-50 c10 -5 20 -6 24 -3 3 3 6 -2 6 -13 0 -15 2 -16 9 -5 7 10 12 11 27 1 16
-9 16 -11 2 -6 -28 8 -30 -10 -8 -54 l21 -41 -20 11 c-12 6 -21 18 -21 26 0
19 -30 77 -36 71 -3 -3 2 -19 10 -36 21 -40 20 -43 -10 -39 -28 3 -30 6 -57
70 l-16 36 26 -4 c14 -3 34 -9 43 -14z m1213 -47 c-13 -2 -35 -2 -50 0 -16 2
-5 4 22 4 28 0 40 -2 28 -4z m584 -11 c-23 -26 -21 -47 6 -60 14 -7 17 -11 7
-11 -9 -1 -25 6 -37 14 -20 14 -23 13 -37 -7 -9 -12 -16 -17 -16 -11 0 6 19
30 43 52 43 42 63 55 34 23z m-867 -61 c0 -3 -5 0 -11 6 -9 9 -19 8 -41 -3
-16 -8 -35 -13 -41 -10 -7 2 -5 5 4 5 29 2 42 27 28 53 -9 17 -3 14 24 -12 20
-19 37 -37 37 -39z m680 27 c0 -18 -4 -38 -8 -45 -4 -7 -41 -17 -82 -24 -92
-14 -416 -7 -448 10 -17 9 -22 21 -22 51 l0 40 280 0 280 0 0 -32z m953 17
c-3 -9 -8 -14 -10 -11 -3 3 -2 9 2 15 9 16 15 13 8 -4z m-2670 -2 c-7 -2 -19
-2 -25 0 -7 3 -2 5 12 5 14 0 19 -2 13 -5z m2887 -1 c0 -4 -10 -9 -22 -9 -18
-2 -20 0 -8 7 18 12 30 13 30 2z m-2770 -37 c7 -9 20 -13 29 -11 12 4 22 -8
38 -44 12 -28 18 -52 12 -55 -5 -4 -9 -2 -9 4 0 6 -6 8 -12 6 -19 -7 -30 5
-59 63 -26 50 -25 68 1 37z m104 -1 c3 -8 2 -12 -4 -9 -6 3 -10 10 -10 16 0
14 7 11 14 -7z m-24 -25 c0 -5 4 -8 9 -4 5 3 13 0 17 -6 4 -8 3 -9 -4 -5 -15
9 -15 3 2 -38 8 -19 22 -39 33 -46 17 -11 17 -11 -2 -5 -11 4 -25 8 -32 8 -7
0 -10 4 -7 9 4 6 -11 48 -33 91 -2 4 1 7 6 7 6 0 11 -5 11 -11z m1462 -56
c-16 -29 -65 -71 -106 -91 -55 -27 -163 -29 -213 -4 -35 19 -84 62 -69 62 3 0
-1 11 -9 24 l-16 24 156 1 c120 2 155 -1 149 -10 -5 -9 -2 -10 12 -5 14 5 11
-1 -10 -23 -17 -17 -26 -31 -22 -31 5 0 3 -6 -3 -14 -10 -12 -8 -14 13 -12 31
4 58 25 49 39 -3 5 -1 7 4 4 6 -4 24 8 40 26 30 36 41 40 25 10z m-1562 7 c8
-5 11 -10 5 -10 -5 0 -17 5 -25 10 -8 5 -10 10 -5 10 6 0 17 -5 25 -10z m1155
-50 c10 -11 16 -20 13 -20 -3 0 -13 9 -23 20 -10 11 -16 20 -13 20 3 0 13 -9
23 -20z m305 0 c0 -5 -5 -10 -11 -10 -5 0 -7 5 -4 10 3 6 8 10 11 10 2 0 4 -4
4 -10z m-319 -17 c13 -16 12 -17 -3 -4 -10 7 -18 15 -18 17 0 8 8 3 21 -13z
m419 14 c0 -2 -10 -12 -22 -23 l-23 -19 19 23 c18 21 26 27 26 19z m808 -59
c16 -18 21 -38 24 -90 1 -38 4 -68 6 -68 2 0 18 12 34 26 22 18 34 22 41 15 7
-7 7 -14 2 -19 -108 -93 -124 -103 -132 -85 -5 10 -8 43 -7 73 2 63 -20 130
-37 113 -8 -8 -8 -17 0 -31 8 -15 6 -23 -9 -37 -24 -22 -47 -14 -56 21 -6 23
-1 33 34 66 47 44 70 47 100 16z m-967 -42 c17 -37 3 -75 -33 -91 -34 -14 -53
-11 -80 13 -19 16 -25 77 -8 87 6 4 7 -1 3 -12 -6 -17 -5 -17 13 -1 10 9 33
18 49 21 17 2 33 5 38 6 4 0 12 -10 18 -23z m-954 -16 c18 -10 39 -31 49 -45
15 -23 15 -27 0 -50 -16 -24 -18 -24 -41 -9 -27 17 -31 29 -15 39 13 8 13 35
0 35 -19 0 -23 -31 -10 -84 11 -47 11 -56 -6 -80 -15 -23 -22 -27 -48 -22 -35
7 -96 62 -96 85 0 9 9 27 20 41 l19 25 23 -23 c20 -19 21 -25 10 -43 -18 -28
-4 -46 15 -20 13 19 13 27 -2 72 -17 50 -17 51 6 75 27 29 35 30 76 4z m1758
-140 c25 -39 45 -79 45 -90 0 -25 -59 -70 -102 -76 -32 -5 -34 -3 -75 64 -49
80 -52 100 -20 129 70 64 97 59 152 -27z m-1567 13 c21 -18 21 -18 -33 -108
-30 -49 -58 -91 -62 -92 -5 -1 -19 6 -32 16 l-25 19 54 91 c30 50 60 91 66 91
7 0 21 -8 32 -17z m142 -68 c28 -14 29 -18 23 -60 -7 -56 2 -58 23 -5 18 46
15 44 48 29 l25 -12 -19 -46 c-10 -25 -29 -72 -43 -104 -26 -57 -26 -57 -54
-45 -38 17 -41 22 -35 79 6 60 -10 65 -28 8 -8 -22 -16 -42 -20 -44 -11 -7
-50 7 -50 18 0 26 76 197 88 197 7 0 26 -7 42 -15z m1172 -2 c27 -32 67 -157
57 -176 -14 -25 -63 -47 -104 -47 -33 0 -37 3 -56 47 -11 27 -26 68 -32 92
-11 41 -11 45 12 60 25 17 78 39 97 40 6 1 18 -7 26 -16z m-242 -73 c4 0 13
-13 20 -29 10 -25 8 -35 -10 -70 -11 -23 -25 -53 -30 -66 -9 -24 -9 -24 35
-18 31 4 45 2 45 -6 0 -13 1 -13 -92 -33 l-68 -15 0 24 c0 13 14 51 30 84 20
38 29 68 25 80 -10 29 -31 17 -27 -15 3 -26 1 -27 -30 -24 -27 2 -34 8 -36 29
-2 15 4 31 13 39 18 15 83 30 103 24 8 -2 17 -4 22 -4z m-629 -16 c24 -12 30
-21 27 -42 -2 -23 -9 -28 -37 -30 -31 -3 -33 -2 -27 22 3 13 2 28 -4 31 -11 7
-17 -5 -24 -50 -2 -16 -7 -50 -11 -75 -8 -45 8 -49 17 -5 3 15 11 19 32 18 37
-3 37 -4 30 -42 -5 -22 -14 -33 -30 -37 -31 -8 -85 2 -109 20 -18 13 -18 19
-6 92 7 44 17 87 22 97 12 22 78 23 120 1z m252 -29 c-2 -5 -18 -11 -38 -13
-31 -3 -35 -6 -35 -33 0 -26 3 -29 30 -29 20 0 30 -5 30 -15 0 -10 -10 -15
-30 -15 -28 0 -30 -2 -30 -40 0 -39 1 -40 36 -40 24 0 34 -4 32 -12 -5 -15
-59 -22 -105 -13 l-34 6 2 110 1 110 72 -3 c41 -2 70 -7 69 -13z"/>
<path d="M2610 4055 c0 -17 5 -25 13 -22 6 2 12 12 12 22 0 10 -6 20 -12 23
-8 2 -13 -6 -13 -23z"/>
<path d="M2610 3960 c0 -22 5 -40 10 -40 6 0 10 18 10 40 0 22 -4 40 -10 40
-5 0 -10 -18 -10 -40z"/>
<path d="M2281 4048 c0 -7 4 -22 9 -33 7 -18 8 -19 15 -2 4 9 5 24 1 32 -7 18
-26 20 -25 3z"/>
<path d="M1977 3890 c3 -11 9 -20 14 -20 11 0 11 3 3 24 -9 23 -23 20 -17 -4z"/>
<path d="M3210 3871 c-12 -24 -13 -34 -1 -27 9 6 22 46 15 46 -2 0 -8 -9 -14
-19z"/>
<path d="M1657 3804 c-3 -5 3 -21 14 -34 13 -18 19 -20 19 -9 0 21 -25 54 -33
43z"/>
<path d="M1717 3700 c16 -28 33 -39 33 -22 0 13 -31 52 -41 52 -6 0 -2 -13 8
-30z"/>
<path d="M3517 3732 c-10 -10 -14 -22 -10 -25 7 -8 43 21 43 35 0 14 -16 9
-33 -10z"/>
<path d="M2695 3570 c14 -48 17 -110 6 -110 -6 0 -15 -10 -22 -21 -16 -31 -29
-80 -19 -74 4 3 6 -4 3 -15 -3 -11 -10 -17 -17 -13 -6 3 -8 2 -3 -2 4 -5 -1
-17 -10 -28 -18 -19 -18 -20 13 -4 42 22 81 69 95 117 14 46 0 110 -32 150
l-21 25 7 -25z"/>
<path d="M2410 3362 c0 -15 45 -51 85 -68 35 -14 38 -14 26 0 -17 21 -111 78
-111 68z"/>
<path d="M1345 3471 c-29 -18 -128 -116 -197 -196 -61 -71 -298 -364 -298
-368 0 -9 104 34 160 66 120 67 228 159 311 263 82 103 120 209 87 242 -16 16
-28 15 -63 -7z"/>
<path d="M2250 2943 c-71 -41 -233 -193 -213 -200 24 -8 119 53 196 127 75 71
107 110 90 110 -5 0 -38 -17 -73 -37z"/>
<path d="M1516 2497 c-104 -62 -137 -88 -232 -182 -70 -70 -134 -163 -134
-198 0 -78 174 38 305 203 64 81 158 220 152 226 -2 2 -43 -20 -91 -49z m-166
-204 c-1 -14 -61 -75 -68 -69 -3 4 10 22 28 41 35 37 40 40 40 28z"/>
<path d="M3844 3285 c-10 -8 -14 -15 -8 -15 5 0 19 7 30 15 10 8 14 15 8 15
-5 0 -19 -7 -30 -15z"/>
<path d="M2772 2545 c0 -16 2 -22 5 -12 2 9 2 23 0 30 -3 6 -5 -1 -5 -18z"/>
<path d="M2773 2470 c0 -25 2 -35 4 -22 2 12 2 32 0 45 -2 12 -4 2 -4 -23z"/>
<path d="M3293 2393 c-10 -10 -13 -14 -5 -8 8 5 35 12 61 16 l46 6 -41 2 c-27
1 -48 -5 -61 -16z"/>
<path d="M3415 2399 c-19 -9 -18 -9 3 -5 12 2 22 1 22 -4 0 -13 -26 -19 -41
-9 -8 5 -31 9 -51 9 -28 0 -42 -6 -57 -26 -12 -15 -21 -34 -21 -44 0 -25 40
-58 93 -76 58 -20 74 -56 37 -86 -29 -24 -40 -23 -84 7 -45 31 -46 31 -46 1 0
-20 6 -25 43 -31 36 -6 39 -8 22 -16 -17 -8 -16 -8 5 -3 14 3 41 7 60 10 27 3
32 2 20 -7 -13 -9 -13 -10 0 -6 8 2 15 8 15 13 0 5 8 20 17 34 9 14 19 36 22
50 3 14 3 20 0 13 -4 -8 -13 -3 -28 14 -13 15 -39 33 -57 40 -33 13 -33 13 -4
8 17 -3 44 -15 60 -27 l30 -21 -19 21 c-11 12 -38 27 -60 34 -56 15 -73 32
-56 52 7 9 8 16 2 16 -19 0 -23 -33 -6 -51 19 -21 6 -27 -14 -7 -18 18 -14 45
8 61 23 16 64 12 81 -9 17 -20 29 -17 29 7 0 12 4 17 11 13 8 -4 8 0 0 15 -7
11 -13 21 -14 20 -1 0 -11 -5 -22 -10z"/>
<path d="M3788 2379 c-18 -17 -27 -28 -19 -24 10 6 11 2 5 -16 -5 -13 -9 -54
-9 -91 0 -89 21 -113 98 -113 28 0 61 4 72 9 20 8 20 7 1 -8 -11 -9 -15 -16
-10 -16 11 0 54 37 54 47 0 3 -7 0 -15 -7 -19 -16 -19 -1 0 24 20 26 19 113 0
150 -9 16 -13 31 -11 33 2 3 11 -8 20 -24 8 -15 15 -23 16 -16 0 15 -49 73
-63 73 -6 0 -2 -7 9 -16 19 -15 19 -16 -1 -8 -42 15 -95 16 -124 1 -41 -20
-40 -12 2 13 17 11 26 20 20 20 -7 0 -27 -14 -45 -31z m128 -20 c15 -17 19
-36 19 -101 0 -72 -2 -82 -24 -99 -32 -27 -66 -24 -90 7 -17 21 -21 41 -21 94
0 53 4 73 21 94 25 32 68 35 95 5z"/>
<path d="M3832 2358 c-7 -7 -12 -17 -12 -22 0 -6 6 -4 13 5 7 9 19 18 27 22
13 5 13 6 0 6 -9 1 -21 -4 -28 -11z"/>
<path d="M3897 2346 c10 -13 19 -23 21 -21 5 5 -22 45 -31 45 -4 0 0 -11 10
-24z"/>
<path d="M3812 2290 c0 -14 2 -19 5 -12 2 6 2 18 0 25 -3 6 -5 1 -5 -13z"/>
<path d="M3923 2255 c0 -27 2 -38 4 -22 2 15 2 37 0 50 -2 12 -4 0 -4 -28z"/>
<path d="M3811 2224 c0 -11 3 -14 6 -6 3 7 2 16 -1 19 -3 4 -6 -2 -5 -13z"/>
<path d="M3893 2173 c-12 -13 -19 -23 -14 -23 10 0 46 39 40 43 -2 2 -14 -7
-26 -20z"/>
<path d="M3830 2166 c0 -2 7 -7 16 -10 8 -3 12 -2 9 4 -6 10 -25 14 -25 6z"/>
<path d="M3858 2403 c6 -2 18 -2 25 0 6 3 1 5 -13 5 -14 0 -19 -2 -12 -5z"/>
<path d="M1730 2382 c0 -10 5 -23 11 -29 12 -12 8 -173 -6 -210 -7 -23 -6 -23
71 -21 l79 2 -72 3 c-40 2 -73 7 -73 11 0 4 38 6 84 4 75 -3 87 -1 105 17 30
30 28 78 -4 93 -25 11 -34 28 -15 28 5 0 17 11 26 25 15 23 15 27 0 50 -15 23
-22 25 -103 25 -68 0 -84 -3 -75 -12 13 -13 17 -204 5 -211 -5 -3 -6 37 -5 89
3 64 0 99 -8 109 -7 8 -10 22 -6 30 3 8 1 15 -4 15 -6 0 -10 -8 -10 -18z m164
-28 c9 -8 16 -22 16 -30 0 -26 -39 -54 -75 -54 l-35 0 0 50 0 50 39 0 c23 0
46 -7 55 -16z m-2 -111 c42 -37 6 -93 -59 -93 l-33 0 0 55 0 55 37 0 c20 0 45
-7 55 -17z"/>
<path d="M1812 2323 c1 -37 1 -37 5 -6 3 19 11 34 21 36 12 3 10 5 -5 6 -20 1
-23 -3 -21 -36z"/>
<path d="M1877 2340 c10 -11 19 -20 21 -20 1 0 -2 9 -8 20 -6 11 -15 20 -20
20 -6 0 -2 -9 7 -20z"/>
<path d="M1855 2293 l-30 -14 30 6 c31 7 41 12 34 19 -2 2 -17 -3 -34 -11z"/>
<path d="M1810 2205 c0 -43 1 -45 28 -44 23 2 24 2 5 6 -19 4 -23 11 -23 39 0
29 3 34 24 34 35 0 53 -26 37 -52 -10 -16 -10 -19 1 -16 7 3 15 15 16 28 5 29
-21 50 -60 50 -27 0 -28 -2 -28 -45z"/>
<path d="M1788 2393 c18 -2 45 -2 60 0 15 2 0 4 -33 4 -33 0 -45 -2 -27 -4z"/>
<path d="M1920 2385 c14 -7 30 -26 37 -42 8 -19 12 -22 13 -10 0 21 -43 67
-62 67 -7 -1 -2 -7 12 -15z"/>
<path d="M2030 2388 c1 -16 30 -56 30 -41 0 7 -4 15 -10 18 -23 14 -6 24 48
28 l57 3 -62 2 c-45 1 -63 -2 -63 -10z"/>
<path d="M2160 2396 c0 -2 7 -7 16 -10 8 -3 12 -2 9 4 -6 10 -25 14 -25 6z"/>
<path d="M2260 2381 c0 -10 7 -24 15 -31 9 -8 15 -9 15 -2 0 6 -5 14 -11 17
-6 4 -8 13 -5 21 3 8 1 14 -4 14 -6 0 -10 -8 -10 -19z"/>
<path d="M2298 2393 c6 -2 18 -2 25 0 6 3 1 5 -13 5 -14 0 -19 -2 -12 -5z"/>
<path d="M2353 2393 c9 -2 23 -2 30 0 6 3 -1 5 -18 5 -16 0 -22 -2 -12 -5z"/>
<path d="M2451 2377 c19 -13 36 -22 39 -20 7 6 -43 43 -59 43 -8 0 1 -11 20
-23z"/>
<path d="M2515 2390 c-3 -6 1 -7 9 -4 18 7 21 14 7 14 -6 0 -13 -4 -16 -10z"/>
<path d="M2618 2393 c7 -3 16 -2 19 1 4 3 -2 6 -13 5 -11 0 -14 -3 -6 -6z"/>
<path d="M2695 2390 c11 -7 30 -24 43 -39 l24 -26 -16 33 c-9 17 -21 32 -25
32 -5 0 -18 3 -28 6 -15 4 -14 3 2 -6z"/>
<path d="M2760 2388 c0 -7 8 -22 17 -33 13 -16 15 -17 10 -2 -4 9 -2 17 3 17
13 0 13 -207 1 -214 -5 -4 -7 4 -4 16 4 19 2 17 -11 -6 -9 -15 -16 -32 -16
-37 0 -5 50 -9 110 -9 61 0 110 3 110 8 0 4 -47 6 -105 4 -58 -2 -105 0 -105
5 0 4 43 7 96 5 l96 -3 -4 30 c-4 27 -2 30 15 25 13 -4 17 -2 13 5 -11 17 -33
13 -48 -8 -8 -11 -27 -21 -43 -24 l-30 -4 32 -2 c21 0 35 5 42 17 12 19 14 12
5 -12 -4 -12 -20 -16 -54 -16 l-48 0 -4 45 c-2 24 -2 49 0 55 5 13 62 13 62 0
0 -5 -8 -7 -17 -3 -12 3 -10 0 5 -12 12 -9 28 -14 35 -12 8 4 7 6 -3 6 -21 1
-20 64 0 73 13 6 13 7 -1 7 -9 1 -23 -7 -30 -16 -12 -14 -12 -16 0 -8 10 5 12
4 7 -3 -4 -7 -18 -12 -32 -12 -22 0 -24 4 -24 50 l0 50 50 0 c29 0 50 -5 50
-11 0 -5 -5 -7 -11 -3 -8 4 -8 0 0 -15 7 -11 17 -21 24 -20 9 0 9 2 0 6 -7 2
-13 9 -13 14 0 6 5 7 10 4 6 -3 10 3 10 15 0 21 -4 21 -95 18 -87 -3 -115 2
-82 15 7 3 5 6 -5 6 -10 1 -18 -5 -18 -11z"/>
<path d="M2825 2394 c72 -8 155 -8 155 -1 0 4 -42 6 -92 5 -51 0 -79 -3 -63
-4z"/>
<path d="M3000 2388 c0 -7 8 -22 17 -33 13 -17 15 -17 9 -2 -3 11 -2 16 4 12
6 -3 10 -51 10 -105 0 -54 -4 -102 -10 -105 -6 -4 -7 1 -4 12 6 15 4 15 -9 -2
-29 -36 -21 -45 37 -45 59 0 78 13 52 36 -9 8 -11 9 -6 2 18 -22 10 -28 -40
-28 -27 0 -50 3 -50 8 0 4 18 6 41 4 39 -4 40 -3 30 16 -14 26 -14 35 0 26 8
-4 8 -1 2 12 -5 11 -8 25 -7 32 1 6 2 17 3 22 0 6 9 10 19 10 21 0 77 -93 67
-110 -4 -6 7 -10 26 -10 24 0 29 3 21 13 -5 6 -22 33 -36 60 -25 44 -25 48 -9
54 55 19 70 71 29 99 -19 12 -44 15 -105 12 -76 -3 -108 5 -58 15 19 4 18 4
-5 6 -17 0 -28 -4 -28 -11z m168 -30 c33 -33 -4 -88 -60 -88 -27 0 -28 2 -28
50 l0 50 38 0 c21 0 43 -5 50 -12z"/>
<path d="M3130 2353 c8 -3 22 -11 30 -17 13 -10 13 -9 1 7 -7 9 -21 17 -30 16
-13 0 -14 -1 -1 -6z"/>
<path d="M3130 2290 c-9 -6 -10 -10 -3 -10 6 0 15 5 18 10 8 12 4 12 -15 0z"/>
<path d="M3078 2393 c12 -2 30 -2 40 0 9 3 -1 5 -23 4 -22 0 -30 -2 -17 -4z"/>
<path d="M3190 2385 c14 -7 30 -26 37 -42 8 -19 12 -22 13 -10 0 21 -43 67
-62 67 -7 -1 -2 -7 12 -15z"/>
<path d="M3480 2388 c1 -14 30 -57 30 -44 0 4 -5 16 -11 28 -10 19 -8 20 44
16 30 -1 53 0 50 5 -8 13 -113 8 -113 -5z"/>
<path d="M3620 2386 c0 -8 5 -18 10 -21 6 -3 11 -18 11 -33 2 -25 2 -25 6 -3
3 13 0 28 -6 34 -19 19 -12 26 27 30 l37 4 -42 1 c-32 2 -43 -2 -43 -12z"/>
<path d="M3717 2393 c10 -3 10 -10 2 -26 -10 -21 -9 -21 5 -3 16 20 13 37 -7
35 -9 0 -9 -2 0 -6z"/>
<path d="M4000 2386 c0 -7 8 -20 18 -27 16 -13 16 -12 3 4 -13 16 -13 20 0 28
11 7 11 9 -3 9 -10 0 -18 -6 -18 -14z"/>
<path d="M4063 2393 c15 -2 39 -2 55 0 15 2 2 4 -28 4 -30 0 -43 -2 -27 -4z"/>
<path d="M4187 2387 c18 -10 6 -11 -69 -8 -88 3 -90 3 -79 -17 16 -29 14 -195
-1 -211 -11 -11 -5 -12 30 -9 23 2 42 0 42 -4 0 -13 -88 -9 -93 5 -3 7 -6 5
-6 -5 -1 -15 8 -18 54 -18 56 0 69 12 44 37 -6 6 -10 30 -7 52 2 23 0 41 -5
41 -5 0 -7 -22 -5 -49 1 -27 0 -47 -4 -44 -5 2 -8 26 -8 54 0 49 0 49 34 49
79 0 115 31 102 88 -6 26 -6 26 9 8 8 -11 15 -15 15 -9 0 14 -48 53 -64 53 -6
-1 -1 -6 11 -13z m-19 -29 c7 -7 12 -24 12 -40 0 -32 -24 -48 -69 -48 -30 0
-31 1 -31 50 l0 50 38 0 c21 0 43 -5 50 -12z"/>
<path d="M4152 2346 c7 -8 15 -12 17 -11 5 6 -10 25 -20 25 -5 0 -4 -6 3 -14z"/>
<path d="M4092 2320 c0 -14 2 -19 5 -12 2 6 2 18 0 25 -3 6 -5 1 -5 -13z"/>
<path d="M4160 2313 c0 -6 -12 -16 -27 -21 -16 -6 -21 -11 -12 -11 20 -1 56
25 46 35 -4 4 -7 2 -7 -3z"/>
<path d="M2066 2358 c5 -32 -58 -201 -76 -206 -13 -5 -13 -3 0 14 14 19 14 19
-8 0 -38 -33 -28 -46 33 -46 49 0 55 2 55 20 0 14 -6 20 -17 18 -24 -4 -27 24
-6 51 11 14 34 24 60 28 41 5 41 5 52 -33 11 -39 8 -49 -12 -49 -7 0 -13 -8
-15 -17 -3 -16 5 -18 57 -18 67 0 78 13 39 46 -23 19 -23 19 -5 -2 25 -30 22
-34 -33 -34 -27 0 -50 3 -50 8 0 4 19 6 42 3 37 -3 41 -2 30 12 -17 20 -65
196 -58 213 4 11 -6 14 -43 14 -44 0 -48 -2 -45 -22z m53 -10 c5 -13 12 -37
15 -55 7 -30 5 -32 -30 -42 -21 -6 -40 -8 -43 -5 -4 4 3 28 30 102 5 12 11 22
14 22 3 0 9 -10 14 -22z m-59 -210 c0 -5 -20 -8 -45 -8 -25 0 -45 3 -45 8 0 4
20 7 45 7 25 0 45 -3 45 -7z"/>
<path d="M2091 2319 c-6 -18 -9 -34 -7 -36 2 -2 9 10 16 27 7 17 10 33 8 36
-3 3 -11 -9 -17 -27z"/>
<path d="M2090 2270 c-21 -7 -21 -8 -5 -9 11 0 27 4 35 9 18 11 5 11 -30 0z"/>
<path d="M2289 2366 c8 -9 11 -48 9 -112 -2 -80 -6 -99 -18 -99 -8 0 -16 -8
-18 -17 -3 -15 5 -18 52 -18 48 0 56 3 56 19 0 10 -8 25 -17 32 -15 11 -16 11
-5 -1 24 -27 14 -40 -33 -40 -25 0 -45 3 -45 8 0 4 19 6 43 4 34 -3 40 -2 30
9 -7 7 -13 35 -13 62 0 44 2 48 23 45 15 -2 31 -19 49 -53 14 -27 24 -53 22
-57 -7 -11 48 -10 66 2 13 9 13 10 0 11 -8 1 -18 1 -22 0 -4 0 -19 21 -33 48
l-25 50 33 15 c32 16 32 16 10 -3 -30 -25 -29 -36 1 -16 19 13 23 23 22 57 -3
57 -23 68 -119 68 -67 0 -78 -2 -68 -14z m142 -20 c20 -44 -23 -85 -78 -74
-14 2 -19 14 -21 51 l-3 47 46 0 c38 0 47 -4 56 -24z"/>
<path d="M2390 2294 c-17 -9 -20 -14 -9 -14 9 0 22 7 29 15 15 18 13 18 -20
-1z"/>
<path d="M2550 2361 c13 -25 13 -198 0 -206 -5 -3 -10 -1 -10 5 0 6 -4 8 -10
5 -5 -3 -10 -15 -10 -26 0 -17 8 -19 89 -19 83 0 92 2 118 26 l28 26 -29 -21
c-24 -17 -43 -21 -112 -21 -46 0 -84 3 -84 8 0 4 35 6 78 4 67 -3 81 0 105 18
35 28 35 62 0 90 l-27 21 22 15 c28 20 30 69 3 84 -11 5 -54 10 -96 10 -72 0
-75 -1 -65 -19z m124 3 c10 -4 16 -18 16 -40 0 -38 -21 -54 -69 -54 -30 0 -31
1 -31 50 l0 50 34 0 c19 0 41 -3 50 -6z m6 -124 c11 -11 20 -27 20 -35 0 -27
-38 -55 -75 -55 l-35 0 0 55 0 55 35 0 c22 0 43 -8 55 -20z"/>
<path d="M2603 2320 c0 -25 2 -35 4 -22 2 12 2 32 0 45 -2 12 -4 2 -4 -23z"/>
<path d="M2668 2317 c-3 -19 -2 -25 4 -19 6 6 8 18 6 28 -3 14 -5 12 -10 -9z"/>
<path d="M2602 2203 l1 -48 4 42 c3 33 8 43 26 46 18 4 17 5 -5 6 -27 1 -28
-1 -26 -46z"/>
<path d="M3515 2260 l0 -120 28 0 c23 0 26 3 19 18 -11 23 -8 58 8 77 15 18
63 45 80 45 11 0 14 -116 3 -123 -5 -3 -6 21 -5 54 2 32 1 59 -2 59 -16 0 -54
-24 -65 -43 -11 -17 -7 -15 20 8 l34 28 3 -48 c2 -26 -2 -53 -7 -58 -25 -25
-11 -37 44 -37 30 0 55 3 55 8 0 4 -22 5 -50 4 -27 -2 -50 0 -50 5 0 5 18 7
41 5 39 -4 40 -3 30 16 -15 28 -14 195 1 210 9 9 5 12 -17 12 -29 0 -30 -2
-30 -42 0 -35 -4 -43 -20 -46 -11 -3 -32 -13 -46 -23 l-27 -19 -4 45 c-2 25 0
55 4 65 6 17 3 20 -20 20 l-27 0 0 -120z"/>
<path d="M2520 2366 c0 -2 8 -10 18 -17 15 -13 16 -12 3 4 -13 16 -21 21 -21
13z"/>
<path d="M3575 2359 c-4 -6 -5 -12 -2 -15 2 -3 7 2 10 11 7 17 1 20 -8 4z"/>
<path d="M3254 2336 c-6 -27 6 -55 32 -77 12 -9 10 -3 -5 18 -17 22 -22 39
-17 57 3 14 4 26 1 26 -2 0 -7 -11 -11 -24z"/>
<path d="M3370 2353 c8 -3 25 -15 38 -26 18 -17 24 -18 35 -7 10 10 9 11 -1 5
-8 -4 -21 1 -33 14 -11 12 -27 21 -37 20 -14 0 -14 -2 -2 -6z"/>
<path d="M2171 2310 c15 -45 24 -54 15 -15 -4 17 -12 34 -17 40 -5 5 -4 -6 2
-25z"/>
<path d="M2283 2270 c0 -36 2 -50 4 -32 2 17 2 47 0 65 -2 17 -4 3 -4 -33z"/>
<path d="M3503 2295 c0 -22 2 -30 4 -17 2 12 2 30 0 40 -3 9 -5 -1 -4 -23z"/>
<path d="M2727 2293 c-11 -13 -17 -25 -15 -27 1 -1 12 -8 23 -16 19 -14 19
-14 6 3 -12 15 -13 22 -2 39 18 29 9 30 -12 1z"/>
<path d="M1938 2291 c-15 -18 -15 -21 2 -36 11 -10 21 -31 23 -49 l4 -31 1 32
c1 17 -5 39 -14 48 -13 12 -14 18 -4 31 7 8 11 16 8 19 -2 2 -11 -4 -20 -14z"/>
<path d="M3593 2298 c-13 -6 -23 -15 -23 -20 0 -8 17 -1 50 22 20 13 1 12 -27
-2z"/>
<path d="M3743 2255 c0 -33 2 -45 4 -27 2 18 2 45 0 60 -2 15 -4 0 -4 -33z"/>
<path d="M4230 2302 c0 -7 -15 -21 -32 -32 -19 -11 -26 -20 -17 -20 19 0 65
47 56 57 -4 3 -7 1 -7 -5z"/>
<path d="M3993 2255 c0 -27 2 -38 4 -22 2 15 2 37 0 50 -2 12 -4 0 -4 -28z"/>
<path d="M3209 2273 c-13 -16 -12 -17 4 -4 9 7 17 15 17 17 0 8 -8 3 -21 -13z"/>
<path d="M3170 2255 c0 -14 44 -91 56 -98 27 -15 14 -27 -30 -27 -26 0 -46 5
-49 13 -3 7 -6 5 -6 -5 -1 -15 8 -18 54 -18 58 0 71 14 39 41 -20 17 -55 85
-47 93 4 3 1 6 -5 6 -7 0 -12 -2 -12 -5z"/>
<path d="M2355 2242 c6 -4 16 -19 24 -34 8 -16 16 -26 18 -24 8 8 -28 66 -40
66 -7 0 -8 -3 -2 -8z"/>
<path d="M2782 2230 c0 -14 2 -19 5 -12 2 6 2 18 0 25 -3 6 -5 1 -5 -13z"/>
<path d="M3096 2242 c6 -4 21 -25 32 -47 12 -22 21 -36 22 -32 1 17 -41 87
-53 87 -8 0 -9 -2 -1 -8z"/>
<path d="M3320 2240 c8 -5 22 -9 30 -9 10 0 8 3 -5 9 -27 12 -43 12 -25 0z"/>
<path d="M3502 2230 c0 -14 2 -19 5 -12 2 6 2 18 0 25 -3 6 -5 1 -5 -13z"/>
<path d="M2118 2220 c12 -5 22 -17 22 -26 0 -10 3 -15 6 -11 13 13 -8 47 -29
46 l-22 0 23 -9z"/>
<path d="M2440 2224 c0 -6 7 -19 16 -30 14 -18 14 -18 3 6 -14 31 -19 36 -19
24z"/>
<path d="M2752 2205 c0 -16 2 -22 5 -12 2 9 2 23 0 30 -3 6 -5 -1 -5 -18z"/>
<path d="M2201 2204 c0 -11 3 -14 6 -6 3 7 2 16 -1 19 -3 4 -6 -2 -5 -13z"/>
<path d="M3396 2205 c4 -8 0 -23 -7 -33 -13 -15 -12 -16 4 -3 19 15 22 36 7
46 -6 3 -7 -1 -4 -10z"/>
<path d="M3309 2184 c17 -14 39 -23 48 -21 15 4 14 5 -3 6 -11 0 -29 10 -39
21 -10 11 -22 20 -27 20 -5 0 4 -12 21 -26z"/>
<path d="M3750 2182 c0 -17 45 -62 62 -62 7 0 3 7 -9 15 -12 9 -29 26 -38 38
-8 12 -15 16 -15 9z"/>
<path d="M3466 2163 c-6 -14 -5 -15 5 -6 7 7 10 15 7 18 -3 3 -9 -2 -12 -12z"/>
<path d="M3492 2160 c-21 -34 -14 -40 42 -40 56 0 77 13 57 33 -9 9 -11 8 -6
-5 6 -16 1 -18 -44 -18 -52 0 -61 6 -39 28 6 6 10 14 7 16 -3 3 -10 -4 -17
-14z"/>
<path d="M3710 2171 c0 -6 4 -13 10 -16 6 -3 7 1 4 9 -7 18 -14 21 -14 7z"/>
<path d="M1921 2144 c-19 -13 -29 -24 -23 -24 6 0 24 11 39 25 35 31 28 31
-16 -1z"/>
<path d="M2401 2148 c-1 -27 1 -28 48 -28 28 0 52 3 54 8 3 4 -17 5 -43 4 -44
-4 -49 -2 -53 20 -4 21 -4 20 -6 -4z"/>
<path d="M3288 2123 c7 -3 16 -2 19 1 4 3 -2 6 -13 5 -11 0 -14 -3 -6 -6z"/>
<path d="M3853 2113 c9 -2 23 -2 30 0 6 3 -1 5 -18 5 -16 0 -22 -2 -12 -5z"/>
<path d="M2698 1723 c6 -2 18 -2 25 0 6 3 1 5 -13 5 -14 0 -19 -2 -12 -5z"/>
<path d="M2300 1656 c0 -38 12 -46 69 -46 36 0 36 1 38 40 l2 40 -55 0 -54 0
0 -34z"/>
<path d="M2620 1681 c-21 -5 -25 -12 -26 -45 l0 -39 97 7 c126 8 151 17 147
54 l-3 27 -95 1 c-52 1 -106 -1 -120 -5z"/>
<path d="M2583 1370 c-21 -20 -37 -28 -49 -23 -12 4 -15 3 -10 -5 20 -32 106
3 106 43 0 22 -11 18 -47 -15z"/>
<path d="M3323 1266 c13 -32 77 -126 87 -126 14 0 14 2 -28 71 -36 58 -74 94
-59 55z"/>
<path d="M3128 1095 c15 -43 33 -75 40 -75 8 0 12 4 10 8 -1 4 -14 38 -27 75
-14 37 -30 67 -37 67 -9 0 -5 -22 14 -75z"/>
</g>
</svg>
